<svg xmlns="http://www.w3.org/2000/svg" width="1200" height="720" viewBox="0 0 1200 720" fill="none">
  <defs>
    <linearGradient id="bg" x1="0" y1="0" x2="1200" y2="720" gradientUnits="userSpaceOnUse">
      <stop stop-color="#FFFFFF"/>
      <stop offset="1" stop-color="#EAF2FF"/>
    </linearGradient>
    <linearGradient id="b" x1="250" y1="120" x2="980" y2="640" gradientUnits="userSpaceOnUse">
      <stop stop-color="#1D72F3" stop-opacity=".20"/>
      <stop offset="1" stop-color="#0B5CE6" stop-opacity=".08"/>
    </linearGradient>
  </defs>
  <rect width="1200" height="720" rx="56" fill="url(#bg)"/>
  <rect x="72" y="72" width="1056" height="576" rx="44" fill="url(#b)"/>
  <g>
    <rect x="140" y="150" width="520" height="84" rx="26" fill="#FFFFFF" fill-opacity=".85"/>
    <rect x="140" y="260" width="680" height="32" rx="16" fill="#FFFFFF" fill-opacity=".75"/>
    <rect x="140" y="310" width="760" height="32" rx="16" fill="#FFFFFF" fill-opacity=".75"/>
    <rect x="140" y="360" width="640" height="32" rx="16" fill="#FFFFFF" fill-opacity=".75"/>
  </g>
  <g>
    <circle cx="900" cy="360" r="170" fill="#FFFFFF" fill-opacity=".9"/>
    <circle cx="900" cy="360" r="120" fill="#1D72F3" fill-opacity=".10"/>
    <path d="M840 390c35-90 85-90 120 0" stroke="#1D72F3" stroke-opacity=".55" stroke-width="14" stroke-linecap="round"/>
    <path d="M840 360h120" stroke="#0B5CE6" stroke-opacity=".35" stroke-width="14" stroke-linecap="round"/>
    <path d="M900 260v200" stroke="#0B5CE6" stroke-opacity=".22" stroke-width="12" stroke-linecap="round"/>
    <path d="M835 505h130" stroke="#1D72F3" stroke-opacity=".18" stroke-width="12" stroke-linecap="round"/>
  </g>
  <text x="150" y="208" font-family="Inter, Arial" font-size="50" font-weight="800" fill="#0B0F17">Учёба как в Telegram: быстро и чисто</text>
  <text x="150" y="610" font-family="Inter, Arial" font-size="28" font-weight="700" fill="#1D72F3">5 минут — билет · 2 минуты — тест · 0 минут — вода</text>
</svg>
