<svg xmlns="http://www.w3.org/2000/svg" width="1200" height="720" viewBox="0 0 1200 720" fill="none">
  <defs>
    <linearGradient id="bg" x1="0" y1="0" x2="1200" y2="720" gradientUnits="userSpaceOnUse">
      <stop stop-color="#EAF2FF"/>
      <stop offset="1" stop-color="#FFFFFF"/>
    </linearGradient>
  </defs>
  <rect width="1200" height="720" rx="48" fill="url(#bg)"/>
  <g opacity=".95">
    <rect x="140" y="120" width="920" height="480" rx="26" fill="#fff" stroke="#E8EDF5" stroke-width="6"/>
    <rect x="190" y="170" width="620" height="14" rx="7" fill="#0B0F17" fill-opacity=".25"/>
    <rect x="190" y="200" width="720" height="14" rx="7" fill="#0B0F17" fill-opacity=".18"/>
    <rect x="190" y="230" width="680" height="14" rx="7" fill="#0B0F17" fill-opacity=".18"/>
    <rect x="190" y="260" width="740" height="14" rx="7" fill="#0B0F17" fill-opacity=".18"/>
    <rect x="190" y="290" width="610" height="14" rx="7" fill="#0B0F17" fill-opacity=".18"/>
    <rect x="190" y="340" width="220" height="14" rx="7" fill="#1D72F3" fill-opacity=".35"/>
    <rect x="190" y="370" width="260" height="14" rx="7" fill="#1D72F3" fill-opacity=".35"/>
    <rect x="190" y="400" width="300" height="14" rx="7" fill="#1D72F3" fill-opacity=".35"/>
    <rect x="190" y="450" width="620" height="14" rx="7" fill="#0B0F17" fill-opacity=".18"/>
    <rect x="190" y="480" width="520" height="14" rx="7" fill="#0B0F17" fill-opacity=".18"/>
    <circle cx="920" cy="210" r="56" fill="#1D72F3"/>
    <text x="888" y="223" font-family="Inter, Arial" font-size="34" font-weight="800" fill="#fff">RU</text>
  </g>
  <text x="150" y="80" font-family="Inter, Arial" font-size="48" font-weight="800" fill="#0B0F17">Русский: запятые без боли</text>
</svg>
