<svg xmlns="http://www.w3.org/2000/svg" width="1200" height="720" viewBox="0 0 1200 720" fill="none">
  <defs>
    <linearGradient id="bg" x1="0" y1="0" x2="1200" y2="720" gradientUnits="userSpaceOnUse">
      <stop stop-color="#FFFFFF"/>
      <stop offset="1" stop-color="#EAF2FF"/>
    </linearGradient>
  </defs>
  <rect width="1200" height="720" rx="48" fill="url(#bg)"/>

  <g>
    <rect x="140" y="140" width="920" height="520" rx="28" fill="#ffffff" stroke="#E8EDF5" stroke-width="6"/>
    <rect x="210" y="215" width="780" height="18" rx="9" fill="#0B5CE6" fill-opacity=".25"/>
    <rect x="210" y="255" width="640" height="18" rx="9" fill="#0B5CE6" fill-opacity=".18"/>
    <rect x="210" y="295" width="720" height="18" rx="9" fill="#0B5CE6" fill-opacity=".18"/>
    <rect x="210" y="335" width="590" height="18" rx="9" fill="#0B5CE6" fill-opacity=".18"/>

    <rect x="210" y="400" width="520" height="200" rx="22" fill="#EAF2FF"/>
    <path d="M250 450h360v16H250zM250 485h320v16H250zM250 520h350v16H250zM250 555h280v16H250z" fill="#1D72F3" fill-opacity=".35"/>

    <circle cx="920" cy="210" r="56" fill="#1D72F3"/>
    <text x="890" y="223" font-family="Inter, Arial" font-size="34" font-weight="800" fill="#fff">BY</text>
  </g>

  <text x="150" y="80" font-family="Inter, Arial" font-size="48" font-weight="800" fill="#0B0F17">Белорусский: разбор текста красиво</text>
</svg>
