<svg xmlns="http://www.w3.org/2000/svg" width="1200" height="720" viewBox="0 0 1200 720" fill="none">
  <defs>
    <linearGradient id="bg" x1="0" y1="0" x2="1200" y2="720" gradientUnits="userSpaceOnUse">
      <stop stop-color="#EAF2FF"/>
      <stop offset="1" stop-color="#FFFFFF"/>
    </linearGradient>
    <linearGradient id="blue" x1="180" y1="90" x2="1020" y2="640" gradientUnits="userSpaceOnUse">
      <stop stop-color="#1D72F3" stop-opacity=".18"/>
      <stop offset="1" stop-color="#0B5CE6" stop-opacity=".06"/>
    </linearGradient>
  </defs>
  <rect width="1200" height="720" rx="48" fill="url(#bg)"/>
  <rect x="72" y="72" width="1056" height="576" rx="40" fill="url(#blue)"/>
  <g opacity=".9">
    <rect x="150" y="160" width="900" height="72" rx="22" fill="#FFFFFF" fill-opacity=".8"/>
    <rect x="150" y="260" width="660" height="26" rx="13" fill="#FFFFFF" fill-opacity=".7"/>
    <rect x="150" y="305" width="740" height="26" rx="13" fill="#FFFFFF" fill-opacity=".7"/>
    <rect x="150" y="350" width="610" height="26" rx="13" fill="#FFFFFF" fill-opacity=".7"/>
  </g>
  <g>
    <circle cx="930" cy="420" r="140" fill="#FFFFFF" fill-opacity=".9"/>
    <path d="M880 370h100v140H880z" fill="#1D72F3" fill-opacity=".18"/>
    <path d="M898 392h64v10h-64zM898 415h74v10h-74zM898 438h56v10h-56zM898 461h69v10h-69z" fill="#0B5CE6" fill-opacity=".35"/>
    <path d="M900 520c20-18 60-18 80 0" stroke="#1D72F3" stroke-opacity=".5" stroke-width="10" stroke-linecap="round"/>
  </g>
  <text x="150" y="208" font-family="Inter, Arial" font-size="48" font-weight="800" fill="#0B0F17">История: главное и по делу</text>
</svg>
